<svg xmlns:dc="http://purl.org/dc/elements/1.1/" xmlns:cc="http://creativecommons.org/ns#" xmlns:rdf="http://www.w3.org/1999/02/22-rdf-syntax-ns#" xmlns:svg="http://www.w3.org/2000/svg" xmlns="http://www.w3.org/2000/svg" viewBox="0 0 360 360" fill="none"><metadata><rdf:RDF><cc:Work><dc:format>image/svg+xml</dc:format><dc:type rdf:resource="http://purl.org/dc/dcmitype/StillImage"/><dc:title>Avatar Illustration System</dc:title><dc:creator><cc:Agent><dc:title>Micah Lanier</dc:title></cc:Agent></dc:creator><dc:source>https://www.figma.com/community/file/829741575478342595</dc:source><cc:license rdf:resource="https://creativecommons.org/licenses/by/4.0/"/><dc:contributor><cc:Agent><dc:title>Florian Körner</dc:title></cc:Agent></dc:contributor></cc:Work><cc:License rdf:about="https://creativecommons.org/licenses/by/4.0/"><cc:permits rdf:resource="https://creativecommons.org/ns#Reproduction"/><cc:permits rdf:resource="https://creativecommons.org/ns#Distribution"/><cc:permits rdf:resource="https://creativecommons.org/ns#DerivativeWorks"/><cc:requires rdf:resource="https://creativecommons.org/ns#Notice"/><cc:requires rdf:resource="https://creativecommons.org/ns#Attribution"/></cc:License></rdf:RDF></metadata><rect fill="transparent" width="360" height="360" x="0" y="0"/><g transform="translate(90, 43)"><path d="M154 319.5c-14.4-20-25.667-58.666-27-78L58.5 212 30 319.5h124z" fill="#F9C9B6" stroke="#000" stroke-width="4"/><path d="M130.373 263.688A65.051 65.051 0 01124 264c-30.779 0-56.053-21.572-58.76-49.098L127 241.5c.378 5.48 1.554 13.316 3.373 22.188z" fill="#000"/><path d="M181.939 151.374l.002.009.093.389.144.654c8.851 40.206-16.109 80.258-56.315 89.89-40.205 9.633-80.606-14.759-90.935-54.61l-.19-.733-16.735-69.844-.067-.289C8.512 76.334 33.544 35.757 74.048 26.053c40.504-9.704 81.206 15.123 91.161 55.501l.051.208.02.083.001.005.048.198.047.199.002.004 16.396 68.437.003.009.081.338.081.339z" fill="#F9C9B6" stroke="#000" stroke-width="4"/></g><g transform="translate(180, 203)"><path d="M62.807 25.177a34 34 0 001.113-11.846c-.17-2.068-2.284-3.22-4.075-2.513-4.229 1.666-18.218 6.965-28.082 8.322-10.823 1.49-27.213-.319-31.957-.908-1.93-.24-3.649 1.418-3.316 3.433a34 34 0 0066.317 3.512z" fill="#000" stroke="#000" stroke-width="4"/><path fill-rule="evenodd" clip-rule="evenodd" d="M51.83 39.553a31.997 31.997 0 01-37.208 4.612c2.854-6.95 9.273-12.2 17.26-13.188 7.983-.988 15.485 2.536 19.947 8.576z"/></g><g transform="translate(120, 122)"><path d="M99 10.214c5.667-2.666 19-5.1 27 6.5M23.58 35.521c2.07-5.91 9.681-17.125 23.562-14.699" stroke="#000000" stroke-width="4" stroke-linecap="round"/></g><g transform="translate(59, 31)"><g stroke="#000" stroke-width="4"><path d="M222.726 100.791c0-66.089-36.458-110.79-80.867-110.791C84.966-10 27 11.341 27 112.254c0 24.969 10.659 43.573 25.565 57.286-1.495-1.869-2.698-3.544-3.498-4.921-2.891-26.981 29.166-47.69 60.534-67.954 16.653-10.758 33.111-21.39 44.045-32.77 9.594 5.437 37.794 28.214 43.167 37.425 2.882 4.94 7.509 21.869 10.671 41.63 10.338-12.418 15.242-24.843 15.242-42.159z" fill="#6BD9E9"/><path d="M154.264 63.246C167.438 51.3 187.146 24.04 185.881 6.334"/></g></g><g transform="translate(152, 139)"><path d="M5.287 34.073c.114.813 1.147.994 1.722.408 2.465-2.516 6.255-4.365 10.654-4.887 2.595-.309 5.091-.12 7.316.472.754.2 1.495-.437 1.232-1.17-1.666-4.646-6.366-7.7-11.475-7.093-5.942.706-10.186 6.095-9.48 12.036l.03.234zm64.098-10c.113.813 1.146.994 1.721.409 2.443-2.486 6.192-4.312 10.542-4.829 2.565-.304 5.032-.118 7.232.464.754.2 1.495-.438 1.23-1.171-1.654-4.594-6.306-7.611-11.362-7.01-5.886.699-10.09 6.037-9.39 11.923.008.071.017.143.027.213z" fill="#000"/></g><g transform="translate(186.37, 168.42)"><path d="M11.088 13.22c5.22-1.985 14.323-1.386 13.763 8.714-.498 8.976-9.707 10.758-12.64 8.665" stroke="#000" stroke-width="4"/></g><g transform="translate(94, 174)"><path d="M30.5 6.176A23.778 23.778 0 0023.08 5c-10.493 0-19 6.5-18 18.5 1.042 12.5 8.507 17 19 17 1.168 0 2.31-.102 3.42-.299 1.21-.214 2.381-.54 3.5-.966" stroke="#000" stroke-width="8"/><path d="M31.5 39.036a19.382 19.382 0 01-7.42 1.464c-10.493 0-17.958-4.5-19-17-1-12 7.507-18.5 18-18.5 3.138 0 6.187.606 8.92 1.73l-.5 32.306z" fill="#F9C9B6"/><path d="M27.5 13.5c-4-1.833-12.8-2.8-16 8M17 14c2.167 1.833 6.3 7.5 5.5 15.5" stroke="#000" stroke-width="4"/></g><g transform="translate(97, 209)"><circle cx="25" cy="2" r="4" fill="#000000"/><circle opacity=".25" cx="26" cy="1" r="1" fill="#fff"/></g><g transform="translate(63, 292)"><path d="M260.366 90.863h-272.91l.104-.212C-7.895 81.395.49 64.319 11.403 49.04c6.193-8.67 13.127-16.654 20.539-22.27 7.412-5.615 15.12-8.73 22.95-8.045 15.054 1.317 28.463 9.56 41.925 17.834 1.275.784 2.551 1.569 3.829 2.348 14.485 8.827 29.359 17.023 45.719 13.436 5.534-1.213 9.264-3.81 11.611-7.164 2.314-3.307 3.146-7.15 3.29-10.663.144-3.518-.395-6.843-.955-9.26a39.89 39.89 0 00-.747-2.773c3.625-3.649 7.463-5.774 11.425-6.73 4.295-1.038 8.887-.738 13.718.69 9.73 2.879 20.14 10.253 30.3 19.735 18.614 17.373 35.693 41.144 45.359 54.684z" fill="#E0DDFF" stroke="#000" stroke-width="4.274"/></g></svg>